<?xml version="1.0" standalone="no"?>
<!DOCTYPE svg PUBLIC "-//W3C//DTD SVG 20010904//EN"
 "http://www.w3.org/TR/2001/REC-SVG-20010904/DTD/svg10.dtd">
<svg version="1.0" xmlns="http://www.w3.org/2000/svg"
 width="1000.000000pt" height="1000.000000pt" viewBox="0 0 1000.000000 1000.000000"
 preserveAspectRatio="xMidYMid meet">
<metadata>
Created by potrace 1.14, written by Peter Selinger 2001-2017
</metadata>
<g transform="translate(0.000000,1000.000000) scale(0.100000,-0.100000)"
fill="#000000" stroke="none">
<path d="M0 5000 l0 -5000 5000 0 5000 0 0 5000 0 5000 -5000 0 -5000 0 0
-5000z m8300 0 l0 -2100 -2100 0 -2100 0 0 400 0 400 105 0 105 0 0 -290 0
-290 1885 0 1885 0 0 1880 0 1880 -1885 0 -1885 0 0 -290 0 -290 -105 0 -105
0 0 400 0 400 2100 0 2100 0 0 -2100z m-4473 1145 c151 -38 191 -44 236 -39
32 4 57 2 60 -4 4 -5 18 -99 31 -208 19 -152 22 -200 13 -206 -7 -5 -30 -7
-52 -6 -39 3 -41 4 -78 81 -91 184 -267 287 -488 287 -144 0 -234 -43 -281
-133 -18 -33 -22 -59 -23 -127 0 -77 3 -92 34 -155 50 -101 167 -213 371 -354
334 -231 450 -333 545 -479 76 -119 107 -214 112 -357 5 -109 3 -126 -19 -191
-79 -226 -298 -386 -602 -439 -172 -29 -322 -14 -528 55 -108 36 -122 39 -169
30 -75 -15 -88 -13 -94 13 -15 62 -52 444 -44 464 10 27 42 45 64 37 21 -8 63
-72 108 -164 73 -149 155 -227 286 -272 57 -20 85 -23 216 -23 150 0 151 0
217 33 121 59 163 139 163 308 0 96 -2 103 -39 180 -55 111 -174 228 -371 364
-411 283 -531 400 -610 597 -34 83 -50 217 -36 296 31 176 172 326 385 408
188 73 316 74 593 4z m2300 -23 c201 -32 299 -58 408 -111 467 -224 717 -758
586 -1256 -96 -370 -380 -677 -756 -818 -131 -50 -262 -77 -420 -88 -84 -5
-427 -8 -780 -7 l-630 3 -3 46 -3 46 95 6 c164 9 239 63 251 179 3 35 5 450 3
924 l-3 860 -27 41 c-39 60 -100 85 -218 92 l-95 6 0 45 0 45 290 6 c160 3
488 5 730 4 391 -2 455 -4 572 -23z"/>
<path d="M5358 6020 c-17 -10 -18 -68 -18 -985 l0 -973 24 -29 c36 -43 84 -54
252 -60 612 -21 940 225 1030 772 21 132 21 388 0 517 -68 415 -291 666 -661
744 -90 19 -601 30 -627 14z"/>
</g>
</svg>
